<svg viewBox="0 0 320 320" fill="#0c0c0c" xmlns="http://www.w3.org/2000/svg">
  <path d="m133.8 99.6.8 1.5c.9 1.6 1.8 3.5 3 4.6.5.5 1.1.8 1.7 1 .2.7.1 1.7 0 2.6l-.1.9c-.3 4.4-.7 9-1.5 13.4h-.7c-1.1.1-2.1.8-2.8 1.7-.6.8-1.1 1.7-.9 2.6.4 3.2 4.4 5.9 7.1 7.8l.8.6 20.6 12.7c1.6 1 3.5 2 5.3 2.6l.8-.5c4.9-4.2 7.6-10 8.2-16.4v-.6c0-.7 0-1.4.2-2 .3-.9.3-2.1.2-3.2l-.1-.9 5.4 1.5c2.8.6 6.2.5 8.6-1.2 1.1-.8 2-2 2.4-3.3l.4-2.1.1-2.2c.1-1.3.1-2.7.4-4l1-3.1a19 19 0 0 0 1.1-3.9v-.3c.1-.7.2-1.1 0-1.8l-.2-1 .2-1.1.6-2.3.6-1.3.8-1.9.2-1.3.2-1.1.6-2.2a30 30 0 0 0 1.1-5.2c.1-1.9-.1-4-.4-5.9l-.2-.8-.3-1.4.3-.6.1-.2c.6-1 .8-1.4.9-2.6l-.7-.2.7.2.2-.2a18 18 0 0 0 2.5-5.2c.2-1.8-.2-3.9-.5-6l-.5-3.7 1-.7 2.2-1.8c2.1-2.1 3.6-5.3 3.9-8.2.3-3-.5-6.1-2.4-8.4a8.9 8.9 0 0 0-4.5-2.8h-.2v-.2c1.3-4.2 1.5-8.2-.6-12.3-1.7-3.3-4.3-4.2-7.8-4.8a5.3 5.3 0 0 1-4.6 3c-2.5.1-5.3-1-7.9-2.1l-2.4-.9c-10.5-3.7-24.2-6.6-32.8 2.6l-2 2.5-.3.6c-.3.6-.8 1.4-1 1.5-.3.2-1.1.2-1.8.3l-1 .1c-1.7.4-3.3 1.1-4.9 2-10.8 6.1-12.8 19.6-12.4 30.9a78.6 78.6 0 0 0 11.3 34.7zm34 50.4z"/>
  <path d="M56.3 312.1c2.1 3.3 5.2 6.2 8.8 7.9H123l.7-3.9c1.3-6 4.5-13.7 9.9-17.2.9-.3 2.7.1 4.1.4l1.1.2 3.4.6c2.9.5 5.7.9 8.5 1.6a18.5 18.5 0 0 0-7.2 7.7 33.5 33.5 0 0 0-3.8 10.6h21.8l.6-2.5.2-.8c1.4-5.8 1.9-11.8 2.3-17.7h8.3c0 4.8.8 9.7 1.7 14.4l.2 1.1c.3 1.8.7 3.8 1.4 5.5h1.9c.6-1.2 1.5-2.3 2.4-3.3.7-.8 1.4-1.6 1.9-2.4.9-1.4 1.2-2.6 1.5-4.2h10.9c1.4 0 2.7 0 4-.2l.8.1c.2.3.2.8.3 1.2l.1.7c.1.7.5 1.4.8 2 .6 1.1 1.7 2.6 2.6 3.5l.9.9 1.4 1.4.1.2h1.1c-.7-.5-1.3-1.1-1.9-1.8l-.3-.3c-.5-.5-.6-.6-.7-1.3.4-1.2 1.4-2 2.5-2.8.9-.7 1.8-1.5 2.3-2.5a5 5 0 0 0 .4-2.1v-.3h14.5c.1 1.5.2 2.8 1.4 3.8l1.6 1.2c1.5 1 3.1 2.1 3.2 3.9 0 .7-.5 1.6-.9 2.2l-.3.1h24.6l1.3-2.8 5.7-13.8.8-2.1a51.7 51.7 0 0 0 4.6-17.1c.1-4.2-1.1-8.4-2.2-12.5l-.6-2.2-2.7-10.3-6.6-23.7-12.2-43.1-1.7-6.2c-2.3-8.2-4.6-16.5-7.6-24.4-.7-1.8-1.4-3.8-2.9-5.1-1.7-1.5-3.9-2.5-6.1-3.5l-2.5-1.2-33.8-10.3 15.1 23.8-6.6 6.5c-1 .9-1.9 1.8-2.7 2.8l14.2 8-.1.6c-.1 1.6-.3 3.3-.8 4.8l-4.2 24.5c-.3 2.3-.8 4.5-1.4 6.8l-.3 1.4v.2c-1.1 4.7-2.1 9.3-3.5 13.9l-.3.9c-.3 1.2-.7 2.4-1.3 3.4.2-2.1.7-4.2 1.3-6.3l.6-2.3 2.2-9.8 6.1-33.3.1-.2.5-.7-.5.7-.1.2.4-4.3c-.1-.2-4.8-2.9-8-4.8l-2.8-1.6-3.2-2.1 3.2-3.2 1.6-1.6c1.5-1.5 3.1-3.1 4.2-4.8-2.7-3.8-5.1-7.9-7.5-11.9l-4.3-7.1-1-1.7c-.6-1.1-1.2-2.1-2-3.1-2.3-3-4.9-6-8.3-7.7 0 1.4.3 2.7.5 4l.3 1.5 1.2 8.3 1.8 18.6.8 5.9c.4 2.6.8 5.3 1 7.9a120 120 0 0 1-5.3 42.5l-3.6 8.8-.1.2c-.8 1.6-1.5 3.3-2.7 4.7a82 82 0 0 1-11.2-16.8l-.1-.2a307 307 0 0 1-19.8-44.7l-6.6-19.7 21.6 23.5.6-1.3 3.9-9.3.7-2.2c.5 1.5 1.1 3 1.8 4.4.4.7 1.3 1.9 1.5 2.6.3 1.2-.9 3.9-1.3 5.1-.1.5-.3 1-.1 1.5.8 2.3 2 4.5 2.9 6.8l.1.2a54 54 0 0 0 5.2-12.7l2.5 5.3c-.3-2.7-2.3-4.9-2.9-7.5l.1-.2.2-.3c1.3-1.5 1.2-4.8 1.3-6.7 1 2.7 2.4 4.9 3.9 7.4.6 1 1 2.3 1.8 3.2.3-2.9 0-5.6-.8-8.4-1.6-5.2-4.5-12.1-9.6-14.7l-.5.4c-2.3 1.5-3.4 4.8-4.4 7.3l-3 7.4-3 7.6-.8 2.1-1-1.1-.4-.5-3.5-4-5.4-5.8c-3.9-4.1-7.8-8.2-11.1-12.7a37.8 37.8 0 0 1-4.3-18.4c.2-1.5 1-3.4 1.7-4.8l.1-.3-2.8 1.8-2 2-.5.5-4.3 4.6-2.6 2.4c-1.6 1.4-3 2.1-4.8 3l-1.5.7-29.4 13.1-8.3 5.6-.5.4c-1.1.8-2.2 1.6-3 2.6-1.9 2.4-2.7 5.8-3.4 8.7l-.1.5-2 10.5-5.6 35.5-5.6 41.4-2.5 19.3c-.6 5.2-1.2 10.5-1.1 15.7.8 5.3 2 10.5 4.9 15.2zm167.9-4c-2.6-.2-5.3-.1-8 0l-2.4.1-1 .1c-1.2.1-2.8.2-3.5-.1l-.3-.2-.1-.1.2-.4 1.3-.3 2.6-17.6h6.6l1.8 11.8.1.4.1.4c.3 1.7.6 3.4 1.3 5l1.3.4h.2l.1.1.1.2-.4.2zm-14.1-33.8c.3-1.5 2.1-3.5 3.4-4.2l.6-.3.8-.4c-.4-.9-.6-1.2-.5-2.2a2 2 0 0 1 1.1-1.1l1-.1c.6 0 1.2.5 1.6.9.2.3.3.7.3 1.1-.1.6-.5 1.1-1 1.5l-.1.1c.5.4 1 .6 1.6.8a5 5 0 0 1 1.9 1 6.5 6.5 0 0 1 2 4.6c.1 1.4-.7 3.3-1.7 4.3-.7.7-1.7.7-2.6.8h-5.9l-1.2-1.2a6.7 6.7 0 0 1-1.3-5.6zm1.6 9.6h7.2c1 0 2.3 0 3.1.4v.2c0 .4.1.5-.1.9l-.7.1-7.4-.1h-.5c-.8 0-1.8 0-2.4-.3h-.1l-.1-.1v-.3c.4-.6.5-.6 1-.8zm-.2-.9c.9-.9 1.4-1 2.7-1.1l1-.1c1.7-.1 4.6-.3 5.4.2l.1.8c-.5.4-1.1.4-1.7.4h-7.3l-.2-.2zm-3.4 4.1c.5-.8 1.7-.9 2.6-1l4.9-.1h3.4c1.5 0 3.1-.1 4.5.3.9.2 1.2.8 1.6 1.5l.3.5-2.9.2h-11.7c-.9 0-2 .1-2.6-.1a.2.2 0 0 1-.2-.2l-.1-.1c-.1-.4 0-.7.2-1zm-7.7 21.9c-1.6.2-3.4.2-5.1.1h-11v-.2c0-.2-.1-.3.1-.5 1-1.7 1.4-4.2 1.7-6.3l.2-1c1-6.2 1.5-12.3 1.9-18.5l8-.1c.2 3.9 1.8 23.9 3.6 26l.7.3-.1.2zm2.4-28.1c-1.2.5-3 .4-4.5.4h-1.4l-10.9-.1h-.9c-1.1 0-2.3 0-3.3-.4l-.1-.4.4-.7.3-.3 1.3-1.3c.5-.2 1.6-.1 2.4-.1h1l8.1.1h1c.8 0 1.7.1 2.5-.1l2.3.2c.8.5 1.6 1.4 2.1 2.3l-.3.4zm-13.5-6.8h2.3l4.5-.1h.4c.9 0 1.8-.1 2.5.4v.6l-.7.1h-10.1c-.9 0-2.2.1-2.6-.2l-.3-.2-.1-.1.3-.5h3.8zm-3.4-1.1c.5-.5 1-.5 1.6-.5h.3l9-.1c.7 0 1.1.1 1.5.6l-.2.3-1.3.1-7.4.1h-.8c-.9 0-1.8.1-2.6-.2l-.1-.3zm8.1 2.7h1.2c1.4 0 2.8-.1 4.1.2l.1.1v.1c.2.2.3.5.6.6l.1.1.4.3v.3c-1.1.4-2.8.3-4.2.2l-1.5-.1-5 .1h-1.9c-1.6 0-3.5 0-4-.4v-.2c.1-.5.2-.8.6-1.1l9.5-.2zm3.3-3.8h-8c-.8 0-1.7 0-2.4-.2-1.1-4.1-3-7.9-5.2-11.6h16.1l4.3.2a35.7 35.7 0 0 0-4.8 11.6zm-6.8-25.3-.1-.8c-.1-.8-.1-1.4-.5-2.1l-.1-.2.1-.4 1-.3.1-.8h1.3c.9.1 1.5.5 2.1 1.1l.4.3c-.4 1-.7 1.7-.6 2.8.4.4 1.6.3 2.4.3h.6v3.3l-3.1-.1v1l-.1 2.8-.6.1-3.1-.2.3-3.5h-3.2l-.1-3.5 3.2.2zm4.7 9.9-2.9.1-4.4.1.9-.7c.6-.5 1.3-1.1 2-1.4h.1c1.2 0 2.2-.1 3.4.2.4.3.6.9.8 1.4l.1.3zm-11.5 1.5.7-.1c3.5-.6 7.4-.9 11-.7.7 0 1.3.3 2 .5l1.2.4 1.5.2c.9.1 1.7.2 2.5.5l.2.7-14.9-.1h-1.3c-1.8.1-3.6.1-5.4-.2l-.2-.2c.9-.7 1.7-.9 2.7-1zm-11.5 40.7-4.9.1c-.5 0-1.3.1-1.8-.2l.1-.4h4.7c.4 0 1.3-.1 1.6 0l.3.3v.2zm6.8-1.1c-.7.3-1.4.3-2.2.3h-4.6l-3.7.1a79 79 0 0 1-10.9-.3l1.1-1.4c.3-.3.9-1 1.3-1.1.8-.3 2.1-.3 3.2-.2h12.9c.9.1 2 1 2.6 1.8.4.3.4.4.3.8zm-16.5-7.4c.7-.3 1.6-.3 2.4-.3h3.2c2.4 0 5-.1 7.1.4.2.4.2.5.1.9v.2h-.1l-.1.1-.2.2h-1.5l-4.5-.2h-6.3l-.3-.1-.1-.1v-.2c0-.3 0-.5.3-.9zm-.3-1.6.1-.5c1.3-.6 3.4-.5 5.2-.4h3c1.6-.1 3.3-.1 4.7.3.2.4.2.5.1.8v.2c-.5.4-1.9.3-2.8.3h-7.1c-1.2 0-2.2 0-3.2-.7zm.5 3.9h.3c2.8-.2 5.6-.1 8.4-.1h1.3l2.3.1c.5.1 1 .3 1.3.7l.1.2-.2.4-2.1.5h-2l-.8.1h-1.6c-3.1 0-8.8 0-9.4-.4v-.3l.1-.2v-.1c.6-.8 1.6-.9 2.3-.9zm16.4-15.2-2.3 5.3-.5 1c-.6 1.1-1.1 2.2-1.4 3.4h-5.2l-6.2.1-4.9-9.8 4-.6.5-.1 1.1-.2.4-.5.1-.1.4-.5a8 8 0 0 1 1.2-1.3c.4-.2 1-.2 1.5-.3h1.1c1.4 0 2.3.1 3.3 1.2.4.5.5.7.4 1.4l6.5 1zm-9.7-12.9c.6-.1 1-.1 1.5.1.1.7-.1 1.4-.3 2.1l-.2.5 2.4.3c.2.8.2 2-.2 2.6-.5.2-1 .1-1.6 0h-.3c-.4.2-.4.8-.3 1.4.1.6.1 1.2-.2 1.5h-2.9c-.3-.5-.2-1.6-.1-2.4v-.6l-2.9-.1v-.2c0-.8-.1-1.9.3-2.4l1.9.2v-3h2.9zM117 170.8v-1.9l.2-18.2.2-3.2.2-4.3v-1.3l.8-.5-.3 33.9c1.7.5 3.3 1.2 5 1.9l2.5 1 2.1.7c1.4.5 2.9 1 4.2 1.7l.5.3-11.8 9v.3c.1.5.4 1 .7 1.4l.2.3 2.6 3.8 6 8.9 22.3 33 8.5 12.8 1.5 2.3 2.5 3.8c-1.8-.8-37.1-53.7-41.2-59.8l-3.9-5.6-.8-.8v-.3c1-1 2.3-1.8 3.5-2.7l1.3-.9 7.6-5.3c-.5-.4-1-.5-1.6-.6l-.6-.2-4-1.3-8-3.2c-.4-1.6-.3-3.4-.2-5zm-8.6 121.6 16.4 3.9.8.2c1.1.3 2.5.6 3 1.2-1.7.7-21.1-4.9-23.9-5.9l.4-.1c.6 0 1.4.2 2.1.4l1.2.3zm-9.5-11.7.2-1.6 2.7-20.8a9 9 0 0 1 .3-2.7l.2-1.2 1.3-10.2 1.2-12.7c.6-10.2-.1-20.5-2.4-30.5l-1.8-6.4-1-3.4a80.5 80.5 0 0 1 6.7 26.5c.6 9.6-.5 19-1.9 28.6l-1.1 6.9-.2 1.2c-.4 2.3-.8 4.5-.8 6.8.6 3.7-.7 9.7-2 15.4-.9 4.1-1.8 8.1-1.8 10.8-.3 1.9 1.2 2.2 3.3 2.5 1.1.2 2.4.4 3.5.9-.6.4-1.2.5-1.9.3l-6.1-1.7c.8-2.8 1.2-5.8 1.6-8.7z"/>
</svg>
