<svg width="2335" height="60" viewBox="0 0 2335 60" fill="#fff" xmlns="http://www.w3.org/2000/svg">
  <path fill="#F54932" d="M0 0h2335v60H0z"/>
  <path d="M28.06 36.68c0 .2-.08 1.13-.25 2.82a86.48 86.48 0 0 1-.26 2.6h-1.4a58.21 58.21 0 0 0-.4-4.1H15.69c-.06.06-.2.62-.44 1.67l-.5 2.44h-1.43l.08-2.64.16-2.79h1.6c.36-.44.74-1.16 1.15-2.16.42-1 .8-2.37 1.14-4.09.34-1.73.5-3.75.5-6.07v-1.34l-2.26-.27v-1.1h12.45v1.1l-2.06.27v13.66h1.98Zm-8.74-12.19c.02 2.08-.1 3.98-.37 5.68a26.45 26.45 0 0 1-.95 4.18c-.35 1.1-.67 1.88-.97 2.33h6.71l.03-13.75h-4.45v1.56Zm12.6-1.47-1.81-.27v-1.1h11.2l.3 3.41h-1.25l-.64-2.13-5.45-.13V29l3.67-.06.31-1.83h1.21v5.06h-1.21l-.3-1.9-3.68-.06v6.56l6.2-.22 1.17-2.77 1.3.4L42.3 38H30.09v-1.08l1.82-.22V23.02Zm18 1.98c0 2.64-.16 4.97-.46 7-.3 2-.74 3.53-1.35 4.57-.3.53-.66.92-1.05 1.17-.4.25-.87.37-1.41.37-.7 0-1.22-.04-1.56-.11l-.16-1.78c.34.04.9.06 1.65.06.28 0 .52-.05.73-.17.2-.13.4-.35.57-.66 1.12-1.73 1.67-5.3 1.67-10.7v-1.73l-2.53-.27v-1.1h12.72v1.1l-2.05.27V36.7l2.18.22V38H52.1v-1.08l2.26-.24.02-13.66h-4.46V25Zm17.36 13.24a6.7 6.7 0 0 1-3.8-1.03 6.4 6.4 0 0 1-2.33-2.9 11.3 11.3 0 0 1-.8-4.38c0-1.7.32-3.17.95-4.45a7.18 7.18 0 0 1 2.64-2.95 6.9 6.9 0 0 1 3.76-1.05c2.29 0 4.03.72 5.24 2.18 1.21 1.43 1.82 3.43 1.82 5.98 0 1.72-.33 3.23-.99 4.53a7.05 7.05 0 0 1-6.49 4.07Zm.29-15.62c-1.42 0-2.55.63-3.37 1.87-.82 1.23-1.23 3.05-1.23 5.44 0 2.2.4 3.94 1.19 5.23a3.78 3.78 0 0 0 3.37 1.92 3.8 3.8 0 0 0 3.34-1.92c.84-1.27 1.25-3.1 1.25-5.5 0-2.21-.4-3.94-1.18-5.17a3.77 3.77 0 0 0-3.37-1.87Zm29.61-.97v1.1l-1.87.29v13.64l2.05.24V38h-6.2v-1.08l1.82-.24V22.95h-7.04V36.7l2.05.22V38h-6.16v-1.08l1.78-.22V23.02l-1.87-.27v-1.1h15.44Zm8.71 16.6a6.7 6.7 0 0 1-3.8-1.04 6.4 6.4 0 0 1-2.34-2.9 11.3 11.3 0 0 1-.79-4.38c0-1.7.32-3.17.95-4.45a7.18 7.18 0 0 1 2.64-2.95 6.9 6.9 0 0 1 3.76-1.05c2.29 0 4.03.72 5.23 2.18 1.22 1.43 1.83 3.43 1.83 5.98 0 1.72-.33 3.23-.99 4.53a7.05 7.05 0 0 1-6.49 4.07Zm.29-15.63c-1.43 0-2.55.63-3.37 1.87-.82 1.23-1.23 3.05-1.23 5.44 0 2.2.4 3.94 1.19 5.23a3.78 3.78 0 0 0 3.36 1.92 3.8 3.8 0 0 0 3.35-1.92c.83-1.27 1.25-3.1 1.25-5.5 0-2.21-.4-3.94-1.19-5.17a3.77 3.77 0 0 0-3.36-1.87Zm11.52.4-2.4-.27v-1.1h5.83l3.1 9.9.73 2.8.66-2.8 3.08-9.9h5.78v1.1l-2.42.27 1.76 13.66 1.92.24V38h-6.34v-1.08l2-.22-.99-9.88-.46-4.24-.92 3.17-3.68 11.5h-1.43l-3.56-10.54-1.3-4.15-.4 4.26-.87 9.88 2.17.22V38h-5.74v-1.08l1.87-.22 1.6-13.68Zm25.85 15.22a6.7 6.7 0 0 1-3.8-1.03 6.4 6.4 0 0 1-2.34-2.9 11.48 11.48 0 0 1-.79-4.38c0-1.7.32-3.17.95-4.45a7.18 7.18 0 0 1 2.64-2.95 6.9 6.9 0 0 1 3.76-1.05c2.29 0 4.03.72 5.24 2.18 1.21 1.43 1.82 3.43 1.82 5.98 0 1.72-.33 3.23-.99 4.53a7.05 7.05 0 0 1-6.49 4.07Zm.29-15.62c-1.42 0-2.55.63-3.37 1.87-.82 1.23-1.23 3.05-1.23 5.44 0 2.2.4 3.94 1.19 5.23a3.78 3.78 0 0 0 3.36 1.92 3.8 3.8 0 0 0 3.35-1.92c.84-1.27 1.25-3.1 1.25-5.5 0-2.21-.4-3.94-1.18-5.17a3.77 3.77 0 0 0-3.37-1.87Zm31.83 14.06c-.2 2.13-.4 3.93-.6 5.41h-1.4l-.16-2.37c-.07-1.03-.13-1.6-.18-1.72H152.6v-1.08l2.07-.22V23.02l-1.83-.27v-1.1h6.1v1.1l-1.96.27V36.7h5.78V23.02l-1.7-.27v-1.1h5.68v1.1l-1.71.27V36.7h5.67V23.02l-1.65-.27v-1.1h5.79v1.1l-1.8.27v13.66h2.64Zm7.92-15.03v1.1l-2.15.27v11.04l1.8-2.7 6.34-7.75v-.6l-1.96-.26v-1.1h6.05v1.1l-1.76.27V36.7l1.87.22V38h-6.14v-1.08l1.94-.22V25.5l-1.63 2.56-6.51 7.85v.8l2.06.21V38h-6.2v-1.08l1.83-.22V23.02l-1.76-.27v-1.1h6.22Zm24.84 12.96-.53 1.26c-.29.7-.7 1.27-1.25 1.71-.54.44-1.17.66-1.9.66a6.05 6.05 0 0 1-2.04-.35v-1.56l1.56.02c.68 0 1.18-.13 1.5-.4.32-.27.6-.77.84-1.47l-5.55-11.46-1.19-.27v-1.1h5.94v1.1l-2.15.27 3.54 7.65.66 2 .73-2.02 2.79-7.63-1.87-.27v-1.1h4.7v1.1l-1.14.27-4.64 11.6Zm11.81-11.79-3.78.13-.77 4.6h-1.45l.37-5.9h13.7l.27 5.9h-1.39l-.72-4.6-3.8-.13V36.7l3.12.22V38h-8.4v-1.08l2.85-.22V22.82Zm16.53 15.42a6.7 6.7 0 0 1-3.8-1.03 6.4 6.4 0 0 1-2.33-2.9 11.3 11.3 0 0 1-.8-4.38c0-1.7.32-3.17.95-4.45a7.18 7.18 0 0 1 2.64-2.95 6.9 6.9 0 0 1 3.76-1.05c2.29 0 4.03.72 5.24 2.18 1.22 1.43 1.82 3.43 1.82 5.98 0 1.72-.33 3.23-.99 4.53a7.05 7.05 0 0 1-6.49 4.07Zm.29-15.62c-1.42 0-2.55.63-3.37 1.87-.82 1.23-1.23 3.05-1.23 5.44 0 2.2.4 3.94 1.19 5.23a3.78 3.78 0 0 0 3.37 1.92 3.8 3.8 0 0 0 3.34-1.92c.84-1.27 1.25-3.1 1.25-5.5 0-2.21-.4-3.94-1.18-5.17a3.77 3.77 0 0 0-3.37-1.87Zm24.4-.97v1.1l-1.88.29v13.64l2.05.24V38h-6.2v-1.08l1.82-.24V22.95h-7.04V36.7l2.04.22V38h-6.16v-1.08l1.79-.22V23.02l-1.87-.27v-1.1h15.44Zm7.4-.13h2.42l5.35 15.18 1.36.22V38h-5.8v-1.08l1.82-.22-1.03-3.25h-6.43l-1.03 3.25 1.89.22V38h-5.21v-1.08l1.36-.22 5.3-15.18Zm1.39 3.52-.55-1.93-.53 1.98-2.22 7.06h5.6l-2.3-7.1Zm16.26 3.9a9.27 9.27 0 0 1 1.26-4 7.15 7.15 0 0 1 2.6-2.58c1.05-.6 2.19-.9 3.4-.88a6.18 6.18 0 0 1 6 3.8c.54 1.2.8 2.58.8 4.16 0 1.78-.31 3.33-.94 4.67a7.08 7.08 0 0 1-2.56 3.03 6.42 6.42 0 0 1-3.6 1.06 7.05 7.05 0 0 1-3.79-.97 6.29 6.29 0 0 1-2.37-2.77c-.55-1.2-.82-2.6-.84-4.2h-3.52v6.42l1.9.24V38h-6.06v-1.08l1.8-.24V23.02l-1.75-.27v-1.1h5.92v1.1l-1.83.27v5.92h3.58Zm7.11-6.27c-1.4 0-2.5.6-3.34 1.82-.84 1.22-1.26 3.05-1.26 5.48 0 2.13.4 3.83 1.2 5.1A3.8 3.8 0 0 0 293.6 37a3.6 3.6 0 0 0 3.23-1.85c.78-1.25 1.17-3.08 1.17-5.5 0-2.13-.38-3.82-1.14-5.08a3.59 3.59 0 0 0-3.24-1.9Zm31.66 14.01c-.19 2.13-.39 3.93-.6 5.41h-1.4l-.15-2.37a13 13 0 0 0-.18-1.72H302.2v-1.08l2.07-.22V23.02l-1.82-.27v-1.1h6.1v1.1l-1.97.27V36.7h5.79V23.02l-1.7-.27v-1.1h5.68v1.1l-1.72.27V36.7h5.68V23.02l-1.65-.27v-1.1h5.79v1.1l-1.8.27v13.66h2.63Zm7.93-15.03v1.1l-2.16.27v11.04l1.8-2.7 6.34-7.75v-.6l-1.95-.26v-1.1h6.05v1.1l-1.76.27V36.7l1.87.22V38h-6.14v-1.08l1.93-.22V25.5l-1.62 2.56-6.52 7.85v.8l2.07.21V38h-6.2v-1.08l1.82-.22V23.02l-1.76-.27v-1.1h6.23Zm14.8 1.37-2.4-.27v-1.1h5.83l3.1 9.9.73 2.8.66-2.8 3.08-9.9h5.79v1.1l-2.42.27 1.76 13.66 1.91.24V38h-6.34v-1.08l2-.22-.98-9.88-.47-4.24-.92 3.17-3.67 11.5h-1.43l-3.57-10.54-1.3-4.15-.4 4.26-.87 9.88 2.18.22V38h-5.75v-1.08l1.87-.22 1.61-13.68Zm47 8.75h-21.14v-1.62h21.14v1.62Zm22.81 4.91c0 .2-.07 1.13-.24 2.82a84.02 84.02 0 0 1-.26 2.6h-1.4a57.13 57.13 0 0 0-.4-4.1h-10.06c-.06.06-.2.62-.44 1.67l-.5 2.44h-1.44l.1-2.64c.05-1.15.1-2.09.15-2.79h1.6c.36-.44.74-1.16 1.15-2.16.42-1 .8-2.37 1.14-4.09.34-1.73.5-3.75.5-6.07v-1.34l-2.26-.27v-1.1h12.45v1.1l-2.06.27v13.66h1.97Zm-8.73-12.19c.02 2.08-.1 3.98-.37 5.68a26.42 26.42 0 0 1-.95 4.18c-.35 1.1-.67 1.88-.97 2.33h6.71l.03-13.75h-4.45v1.56Zm12.6-1.47-1.81-.27v-1.1h11.2l.3 3.41h-1.25l-.64-2.13-5.45-.13V29l3.67-.06.31-1.83h1.21v5.06h-1.21l-.3-1.9-3.68-.06v6.56l6.2-.22 1.17-2.77 1.3.4-.64 3.82h-12.21v-1.08l1.82-.22V23.02Zm18 1.98c0 2.64-.16 4.97-.46 7-.3 2-.75 3.53-1.35 4.57-.3.53-.66.92-1.05 1.17-.4.25-.87.37-1.41.37-.7 0-1.23-.04-1.56-.11l-.16-1.78c.34.04.9.06 1.65.06.28 0 .52-.05.73-.17.2-.13.4-.35.57-.66 1.12-1.73 1.67-5.3 1.67-10.7v-1.73l-2.53-.27v-1.1h12.72v1.1l-2.05.27V36.7l2.18.22V38h-6.77v-1.08l2.26-.24.02-13.66h-4.46V25Zm17.36 13.24a6.7 6.7 0 0 1-3.8-1.03 6.4 6.4 0 0 1-2.33-2.9 11.3 11.3 0 0 1-.8-4.38c0-1.7.32-3.17.95-4.45a7.18 7.18 0 0 1 2.64-2.95 6.9 6.9 0 0 1 3.76-1.05c2.29 0 4.03.72 5.24 2.18 1.21 1.43 1.82 3.43 1.82 5.98 0 1.72-.33 3.23-.99 4.53a7.05 7.05 0 0 1-6.49 4.07Zm.29-15.62c-1.42 0-2.55.63-3.37 1.87-.82 1.23-1.23 3.05-1.23 5.44 0 2.2.4 3.94 1.19 5.23a3.78 3.78 0 0 0 3.37 1.92 3.8 3.8 0 0 0 3.34-1.92c.84-1.27 1.25-3.1 1.25-5.5 0-2.21-.4-3.94-1.19-5.17a3.77 3.77 0 0 0-3.36-1.87Zm16.02.4-1.72-.27v-1.1h2.93c.52 0 1.04-.02 1.56-.06.79-.06 1.54-.09 2.24-.09 2.13.01 3.63.41 4.51 1.19.88.78 1.32 1.95 1.32 3.52a5.24 5.24 0 0 1-3.08 5.04c-.95.45-2.05.68-3.3.68-.43 0-.86 0-1.3-.02l-.81-.07v4.84l3.01.24V38h-7.2v-1.08l1.84-.22V23.02Zm2.35 7.61c.4.07 1.11.11 2.11.11 1.16 0 2.1-.35 2.82-1.06.73-.7 1.1-1.85 1.1-3.45 0-1.26-.32-2.16-.95-2.7-.63-.56-1.61-.84-2.95-.84-.47 0-.96.03-1.5.09l-.63.04v7.81Zm17.48 3.98c-.06.12-.24.54-.53 1.26a4.3 4.3 0 0 1-1.26 1.71 2.9 2.9 0 0 1-1.89.66 6.04 6.04 0 0 1-2.04-.35v-1.56l1.56.02c.67 0 1.17-.13 1.5-.4.32-.27.6-.77.83-1.47l-5.54-11.46-1.2-.27v-1.1h5.95v1.1l-2.16.27 3.54 7.65.66 2 .73-2.02 2.8-7.63-1.88-.27v-1.1h4.71v1.1l-1.14.27-4.64 11.6Zm13.99-5.17a4.2 4.2 0 0 1 1.75 1.48c.6.74 1.3 1.76 2.12 3.05.56.91.99 1.58 1.3 2 .3.42.57.65.79.71l.83.24V38h-2.73c-.33 0-.71-.29-1.14-.86-.4-.58-.95-1.47-1.6-2.66a32.85 32.85 0 0 0-1.88-3.04c-.5-.69-.97-1.03-1.43-1.03h-1.4v6.27l1.95.26V38h-6.02v-1.1l1.78-.22V23.02l-1.78-.27v-1.1h5.9v1.1l-1.83.27v6.33h1.89l4.44-6.33-1.85-.27v-1.1h5.42v1.1l-1.74.27-4.77 6.42Zm20.46 8.8c-1.6 0-2.99-.34-4.13-1.03a6.73 6.73 0 0 1-2.58-2.95 10.44 10.44 0 0 1-.88-4.44c0-1.65.35-3.1 1.04-4.36a7.36 7.36 0 0 1 2.84-2.93 7.86 7.86 0 0 1 4.04-1.05c1.13 0 2.49.17 4.07.53l.73.13-.22 3.96h-1.47l-.55-2.8a2.6 2.6 0 0 0-1.08-.44c-.5-.13-1.12-.2-1.85-.2a4.1 4.1 0 0 0-2.5.82 5.25 5.25 0 0 0-1.75 2.35 10.18 10.18 0 0 0-.61 3.74c0 1.38.18 2.64.55 3.77a6.08 6.08 0 0 0 1.67 2.7c.75.66 1.67 1 2.77 1 .78 0 1.37-.07 1.78-.2a3.1 3.1 0 0 0 1.08-.58l.93-2.15 1.38.17-.53 3.13c-.3.01-.76.11-1.36.3a13 13 0 0 1-1.54.38c-.48.1-1.1.15-1.83.15Zm12.44-16.72h2.42l5.35 15.18 1.36.22V38h-5.8v-1.08l1.82-.22-1.03-3.25h-6.43l-1.03 3.25 1.89.22V38h-5.22v-1.08l1.37-.22 5.3-15.18Zm1.39 3.52-.55-1.93-.53 1.98-2.22 7.06h5.6l-2.3-7.1Zm11.07-2.02-2.4-.27v-1.1h5.83l3.1 9.9.73 2.8.66-2.8 3.08-9.9h5.79v1.1l-2.42.27 1.76 13.66 1.91.24V38h-6.33v-1.08l2-.22-1-9.88-.45-4.24-.93 3.17-3.67 11.5h-1.43l-3.57-10.54-1.3-4.15-.39 4.26-.88 9.88 2.18.22V38h-5.74v-1.08l1.87-.22 1.6-13.68Zm25.55-1.37v1.1l-2.16.27v11.04l1.8-2.7 6.34-7.75v-.6l-1.96-.26v-1.1h6.05v1.1l-1.75.27V36.7l1.87.22V38h-6.14v-1.08l1.93-.22V25.5l-1.63 2.56-6.5 7.85v.8l2.06.21V38h-6.2v-1.08l1.82-.22V23.02l-1.76-.27v-1.1h6.23Zm17.86 8.19-4.58-6.8-1.63-.29v-1.1h6.56v1.1l-2.1.29 3.44 5.57 3.43-5.6-1.93-.26v-1.1h5.4v1.1l-1.75.29-4.47 6.38 4.9 7.28 1.68.22V38h-6.53v-1.08l2.04-.22-3.74-6-3.58 6 2.2.22V38h-5.86v-1.08l1.88-.22 4.64-6.86Zm22.64 4.77c-.06.12-.24.54-.53 1.26-.3.7-.7 1.27-1.25 1.71-.54.44-1.17.66-1.9.66a6.05 6.05 0 0 1-2.04-.35v-1.56l1.56.02c.68 0 1.18-.13 1.5-.4.32-.27.6-.77.83-1.47l-5.54-11.46-1.19-.27v-1.1h5.94v1.1l-2.15.27 3.54 7.65.66 2 .72-2.02 2.8-7.63-1.87-.27v-1.1h4.7v1.1l-1.14.27-4.64 11.6Zm11.81-11.79-3.78.13-.77 4.6h-1.46l.38-5.9h13.7l.27 5.9h-1.39l-.72-4.6-3.8-.13V36.7l3.12.22V38h-8.4v-1.08l2.85-.22V22.82Zm16.53 15.42a6.7 6.7 0 0 1-3.8-1.03 6.4 6.4 0 0 1-2.34-2.9 11.48 11.48 0 0 1-.79-4.38c0-1.7.32-3.17.95-4.45a7.18 7.18 0 0 1 2.64-2.95 6.9 6.9 0 0 1 3.76-1.05c2.29 0 4.03.72 5.24 2.18 1.21 1.43 1.82 3.43 1.82 5.98 0 1.72-.33 3.23-.99 4.53a7.05 7.05 0 0 1-6.49 4.07Zm.29-15.62c-1.43 0-2.55.63-3.37 1.87-.82 1.23-1.23 3.05-1.23 5.44 0 2.2.4 3.94 1.19 5.23a3.78 3.78 0 0 0 3.36 1.92 3.8 3.8 0 0 0 3.35-1.92c.83-1.27 1.25-3.1 1.25-5.5 0-2.21-.4-3.94-1.19-5.17a3.77 3.77 0 0 0-3.36-1.87Zm24.39-.97v1.1l-1.87.29v13.64l2.04.24V38h-6.2v-1.08l1.83-.24V22.95h-7.04V36.7l2.04.22V38h-6.16v-1.08l1.78-.22V23.02l-1.87-.27v-1.1h15.45Zm7.41-.13h2.42l5.35 15.18 1.36.22V38h-5.8v-1.08l1.82-.22-1.03-3.25h-6.43l-1.03 3.25 1.89.22V38h-5.22v-1.08l1.37-.22 5.3-15.18Zm1.39 3.52-.55-1.93-.53 1.98-2.22 7.06h5.6l-2.3-7.1Zm16.26 3.9a9.27 9.27 0 0 1 1.26-4 7.15 7.15 0 0 1 2.6-2.58c1.05-.6 2.19-.9 3.4-.88a6.18 6.18 0 0 1 6 3.8c.54 1.2.8 2.58.8 4.16 0 1.78-.31 3.33-.95 4.67a7.08 7.08 0 0 1-2.55 3.03 6.42 6.42 0 0 1-3.6 1.06 7.05 7.05 0 0 1-3.79-.97 6.29 6.29 0 0 1-2.38-2.77c-.54-1.2-.82-2.6-.83-4.2h-3.52v6.42l1.9.24V38h-6.06v-1.08l1.8-.24V23.02l-1.75-.27v-1.1h5.91v1.1l-1.82.27v5.92h3.58Zm7.1-6.27c-1.38 0-2.5.6-3.34 1.82-.83 1.22-1.25 3.05-1.25 5.48 0 2.13.4 3.83 1.19 5.1a3.8 3.8 0 0 0 3.39 1.92 3.6 3.6 0 0 0 3.23-1.85c.78-1.25 1.17-3.08 1.17-5.5 0-2.13-.38-3.82-1.15-5.08a3.59 3.59 0 0 0-3.23-1.9Zm31.67 14.01a113.6 113.6 0 0 1-.6 5.41h-1.4l-.16-2.37c-.07-1.03-.13-1.6-.17-1.72h-20.75v-1.08l2.07-.22V23.02l-1.82-.27v-1.1h6.09v1.1l-1.96.27V36.7h5.79V23.02l-1.7-.27v-1.1h5.68v1.1l-1.72.27V36.7h5.68V23.02l-1.65-.27v-1.1h5.78v1.1l-1.8.27v13.66h2.64Zm7.93-15.03v1.1l-2.16.27v11.04l1.8-2.7 6.34-7.75v-.6l-1.96-.26v-1.1h6.05v1.1l-1.76.27V36.7l1.87.22V38h-6.13v-1.08l1.93-.22V25.5l-1.63 2.56-6.5 7.85v.8l2.06.21V38h-6.2v-1.08l1.82-.22V23.02l-1.76-.27v-1.1h6.23Zm17.86 8.19-4.58-6.8-1.63-.29v-1.1h6.56v1.1l-2.1.29 3.44 5.57 3.43-5.6-1.93-.26v-1.1h5.4v1.1l-1.75.29-4.47 6.38 4.9 7.28 1.68.22V38h-6.53v-1.08l2.04-.22-3.74-6-3.58 6 2.2.22V38h-5.86v-1.08l1.88-.22 4.64-6.86Zm13.5 2.92h-1.4l-.67-14.19h2.69l-.62 14.2Zm-2.15 4.07c0-.44.16-.81.5-1.12.34-.3.72-.46 1.15-.46.47 0 .82.13 1.07.4.25.26.38.59.38.99 0 .47-.17.85-.5 1.14-.33.3-.73.44-1.2.44-.38 0-.7-.12-.99-.37-.27-.27-.41-.6-.41-1.02Zm43.1-15.18v1.1l-1.96.29V36.7h5.79V23.02l-1.7-.27v-1.1h5.68v1.1l-1.71.27V36.7h5.67V23.02l-1.65-.27v-1.1h5.79v1.1l-1.8.27v13.66l2.04.24V38h-22.48v-1.08l2.06-.22V23.02l-1.82-.27v-1.1h6.1Zm23.36-.13h2.42l5.34 15.18 1.37.22V38h-5.81v-1.08l1.83-.22-1.04-3.25h-6.42l-1.04 3.25 1.9.22V38h-5.22v-1.08l1.37-.22 5.3-15.18Zm1.38 3.52-.55-1.93-.52 1.98-2.23 7.06h5.61l-2.3-7.1Zm14.14 4.8-4.58-6.8-1.63-.29v-1.1h6.56v1.1l-2.1.29 3.44 5.57 3.43-5.6-1.93-.26v-1.1h5.4v1.1l-1.75.29-4.47 6.38 4.9 7.28 1.68.22V38h-6.53v-1.08l2.04-.22-3.74-6-3.58 6 2.2.22V38h-5.86v-1.08l1.88-.22 4.64-6.86Zm12.6-6.82-2.4-.27v-1.1h5.83l3.1 9.9.73 2.8.66-2.8 3.08-9.9h5.79v1.1l-2.42.27 1.76 13.66 1.91.24V38h-6.34v-1.08l2-.22-.98-9.88-.47-4.24-.92 3.17-3.67 11.5h-1.43l-3.57-10.54-1.3-4.15-.4 4.26-.87 9.88 2.18.22V38h-5.75v-1.08l1.88-.22 1.6-13.68Zm24.56-1.5h2.42l5.34 15.18 1.37.22V38h-5.81v-1.08l1.83-.22-1.04-3.25h-6.42l-1.04 3.25 1.9.22V38h-5.22v-1.08l1.37-.22 5.3-15.18Zm1.38 3.52-.55-1.93-.52 1.98-2.23 7.06h5.61l-2.3-7.1Zm13.85-2.22-3.78.13-.77 4.6h-1.46l.38-5.9h13.7l.27 5.9h-1.39l-.72-4.6-3.81-.13V36.7l3.12.22V38h-8.4v-1.08l2.86-.22V22.82Zm16.97 5.26c1.79 0 3.16.42 4.12 1.27a4.45 4.45 0 0 1 1.43 3.52c0 1.7-.54 3-1.61 3.92a6.27 6.27 0 0 1-4.25 1.39 13.48 13.48 0 0 1-1.51-.07c-.86-.07-1.61-.11-2.27-.11h-3v-1.08l1.85-.22V23l-1.78-.29v-1.06h6.27v1.06l-2.15.29v5.1l2.9-.02Zm13.82-6.43v1.1l-2.05.27V36.7l2.05.24V38h-6.47v-1.08l2.05-.22V23.02l-2.05-.27v-1.1h6.47ZM921.02 36.8a11.99 11.99 0 0 0 2.18.2c1.23 0 2.16-.35 2.81-1.04.66-.69 1-1.67 1-2.94 0-1.22-.33-2.13-.98-2.73-.64-.62-1.57-.93-2.77-.93l-2.24.03v7.41Zm38.26-.11c0 .2-.08 1.13-.25 2.82a92.83 92.83 0 0 1-.26 2.6h-1.4a60.89 60.89 0 0 0-.4-4.1H946.9c-.06.06-.2.62-.44 1.67l-.5 2.44h-1.43l.09-2.64c.05-1.15.1-2.09.15-2.79h1.6a9.3 9.3 0 0 0 1.15-2.16c.42-1 .8-2.37 1.14-4.09.34-1.73.5-3.75.5-6.07v-1.34l-2.26-.27v-1.1h12.46v1.1l-2.07.27v13.66h1.98Zm-8.74-12.19c.02 2.08-.1 3.98-.37 5.68a26.53 26.53 0 0 1-.95 4.18c-.35 1.1-.67 1.88-.97 2.33h6.72l.02-13.75h-4.45v1.56Zm12.6-1.47-1.8-.27v-1.1h2.96c.5 0 1.13-.03 1.9-.08.7-.06 1.22-.1 1.55-.1 2.03 0 3.47.32 4.34.95a3.2 3.2 0 0 1 1.32 2.78 3.95 3.95 0 0 1-3.37 4.1 4.75 4.75 0 0 1 3.33.98c.8.69 1.2 1.63 1.2 2.81a4.6 4.6 0 0 1-1.58 3.63c-1.04.94-2.77 1.41-5.2 1.41a87.16 87.16 0 0 0-3.56-.13h-2.92v-1.08l1.83-.22V23.02Zm2.33 5.85c.2.01.62.02 1.25.02h1.21c1.03 0 1.8-.28 2.33-.86.53-.57.8-1.38.8-2.44 0-1.02-.27-1.77-.8-2.24-.52-.49-1.43-.73-2.7-.73-.53 0-1.07.03-1.63.09l-.46.04v6.12Zm0 7.9c.33.12 1.1.17 2.28.17 1.49 0 2.56-.3 3.22-.9.67-.61 1-1.5 1-2.64 0-1.13-.28-1.95-.87-2.46-.57-.52-1.5-.77-2.8-.77-1.5 0-2.44.01-2.83.04v6.56Zm17.26-15.12v1.1l-2.16.27v11.04l1.8-2.7 6.34-7.75v-.6l-1.96-.26v-1.1h6.05v1.1l-1.76.27V36.7l1.87.22V38h-6.13v-1.08l1.93-.22V25.5l-1.63 2.56-6.5 7.85v.8l2.06.21V38h-6.2v-1.08l1.82-.22V23.02l-1.76-.27v-1.1h6.23Zm23.4 0 .15 5.79h-1.47l-.64-4.47-4.84-.17v13.88l3.83.24V38h-8.62v-1.08l2.42-.24V23.04l-2.36-.3v-1.09h11.53Zm6.85-.13h2.42l5.34 15.18 1.37.22V38h-5.81v-1.08l1.82-.22-1.03-3.25h-6.42l-1.04 3.25 1.89.22V38h-5.21v-1.08l1.36-.22 5.31-15.18Zm1.38 3.52-.55-1.93-.53 1.98-2.22 7.06h5.61l-2.31-7.1Zm16.27 3.9a9.17 9.17 0 0 1 1.25-4 7.18 7.18 0 0 1 2.6-2.58c1.05-.6 2.19-.9 3.41-.88 1.44 0 2.66.34 3.67 1.01a6.1 6.1 0 0 1 2.33 2.8c.53 1.18.8 2.57.8 4.15 0 1.78-.32 3.33-.95 4.67a7.13 7.13 0 0 1-2.55 3.03 6.44 6.44 0 0 1-3.61 1.06 7.03 7.03 0 0 1-3.78-.97 6.22 6.22 0 0 1-2.38-2.77 10.5 10.5 0 0 1-.84-4.2h-3.52v6.42l1.9.24V38h-6.05v-1.08l1.8-.24V23.02l-1.76-.27v-1.1h5.92v1.1l-1.83.27v5.92h3.59Zm7.1-6.27c-1.39 0-2.5.6-3.34 1.82-.84 1.22-1.25 3.05-1.25 5.48 0 2.13.39 3.83 1.18 5.1a3.81 3.81 0 0 0 3.39 1.92c1.4 0 2.47-.62 3.24-1.85.77-1.25 1.16-3.08 1.16-5.5 0-2.13-.38-3.82-1.14-5.08a3.59 3.59 0 0 0-3.24-1.9Zm14.13.15-3.78.13-.77 4.6h-1.45l.37-5.9h13.71l.26 5.9h-1.39l-.72-4.6-3.81-.13V36.7l3.13.22V38H1049v-1.08l2.86-.22V22.82Zm16.91.2-1.8-.27v-1.1h2.97c.5 0 1.13-.03 1.89-.08.71-.06 1.23-.1 1.56-.1 2.03 0 3.47.32 4.34.95a3.2 3.2 0 0 1 1.32 2.78 4 4 0 0 1-3.37 4.1 4.71 4.71 0 0 1 3.32.98 3.5 3.5 0 0 1 1.21 2.81 4.6 4.6 0 0 1-1.58 3.63c-1.04.94-2.77 1.41-5.19 1.41a86.5 86.5 0 0 0-3.57-.13h-2.92v-1.08l1.82-.22V23.02Zm2.34 5.85c.2.01.62.02 1.25.02h1.21c1.03 0 1.8-.28 2.33-.86.53-.57.79-1.38.79-2.44 0-1.02-.26-1.77-.79-2.24-.53-.49-1.43-.73-2.7-.73-.53 0-1.08.03-1.63.09l-.46.04v6.12Zm0 7.9c.33.12 1.1.17 2.28.17 1.48 0 2.56-.3 3.22-.9.67-.61 1.01-1.5 1.01-2.64 0-1.13-.3-1.95-.88-2.46-.57-.52-1.51-.77-2.8-.77-1.49 0-2.44.01-2.83.04v6.56Zm26.36-15.12v1.1l-1.87.29v13.64l2.05.24V38h-6.2v-1.08l1.82-.24V22.95h-7.04V36.7l2.05.22V38h-6.16v-1.08l1.78-.22V23.02l-1.87-.27v-1.1h15.44Zm3.87 1.37-1.8-.27v-1.1h11.2l.31 3.41h-1.26l-.64-2.13-5.45-.13V29l3.67-.06.31-1.83h1.21v5.06h-1.21l-.31-1.9-3.67-.06v6.56l6.2-.22 1.17-2.77 1.3.4-.64 3.82h-12.21v-1.08l1.82-.22V23.02Zm14.38 0-1.72-.27v-1.1h2.93c.53 0 1.05-.02 1.56-.06.79-.06 1.54-.09 2.24-.09 2.13.01 3.63.41 4.51 1.19.88.78 1.32 1.95 1.32 3.52a5.22 5.22 0 0 1-3.08 5.04c-.95.45-2.05.68-3.3.68-.42 0-.85 0-1.29-.02l-.82-.07v4.84l3.02.24V38h-7.2v-1.08l1.83-.22V23.02Zm2.35 7.61c.41.07 1.12.11 2.11.11 1.16 0 2.1-.35 2.82-1.06.73-.7 1.1-1.85 1.1-3.45 0-1.26-.32-2.16-.95-2.7-.63-.56-1.61-.84-2.94-.84-.47 0-.97.03-1.5.09l-.64.04v7.81Zm11.89-7.61-1.8-.27v-1.1h11.2l.3 3.41h-1.25l-.64-2.13-5.45-.13V29l3.67-.06.31-1.83h1.21v5.06h-1.21l-.31-1.9-3.67-.06v6.56l6.2-.22 1.17-2.77 1.29.4-.63 3.82h-12.21v-1.08l1.82-.22V23.02Zm26.63 13.66c0 .2-.08 1.13-.24 2.82a57.4 57.4 0 0 1-.27 2.6h-1.4a66.16 66.16 0 0 0-.4-4.1h-10.05a9.2 9.2 0 0 0-.44 1.67l-.51 2.44h-1.43a113.11 113.11 0 0 1 .24-5.43h1.61c.35-.44.73-1.16 1.14-2.16a21.5 21.5 0 0 0 1.15-4.09c.33-1.73.5-3.75.5-6.07v-1.34l-2.26-.27v-1.1h12.45v1.1l-2.07.27v13.66h1.98Zm-8.73-12.19c.01 2.08-.11 3.98-.38 5.68a26.83 26.83 0 0 1-.94 4.18 11.1 11.1 0 0 1-.97 2.33h6.71l.02-13.75h-4.44v1.56Zm17.85-1.47-1.74-.27v-1.1h5.99v1.1l-1.89.27v5.92h7.74v-5.92l-1.78-.27v-1.1h5.89v1.1l-1.73.27V36.7l1.73.22V38h-5.91v-1.08l1.8-.22v-6.4h-7.74v6.4l1.91.22V38h-6.05v-1.08l1.78-.22V23.02Zm18.18 0-1.81-.27v-1.1h11.2l.31 3.41h-1.26l-.63-2.13-5.46-.13V29l3.67-.06.31-1.83h1.21v5.06h-1.21l-.31-1.9-3.67-.06v6.56l6.2-.22 1.17-2.77 1.3.4-.64 3.82h-12.21v-1.08l1.83-.22V23.02Zm23.09-.2-3.78.13-.77 4.6h-1.46l.38-5.9h13.7l.27 5.9h-1.39l-.72-4.6-3.81-.13V36.7l3.12.22V38h-8.4v-1.08l2.86-.22V22.82Zm16.53 15.42c-1.5 0-2.76-.34-3.81-1.03a6.45 6.45 0 0 1-2.33-2.9 11.23 11.23 0 0 1-.79-4.38c0-1.7.32-3.17.95-4.45a7.1 7.1 0 0 1 6.4-4c2.29 0 4.03.72 5.23 2.18 1.22 1.43 1.83 3.43 1.83 5.98 0 1.72-.33 3.23-.99 4.53a7.06 7.06 0 0 1-6.49 4.07Zm.29-15.62c-1.43 0-2.55.63-3.37 1.87-.82 1.23-1.23 3.05-1.23 5.44 0 2.2.39 3.94 1.19 5.23a3.76 3.76 0 0 0 3.36 1.92c1.41 0 2.52-.64 3.35-1.92.83-1.27 1.25-3.1 1.25-5.5 0-2.21-.4-3.94-1.19-5.17a3.76 3.76 0 0 0-3.36-1.87Zm14.42 2.38c0 2.64-.15 4.97-.46 7-.29 2-.74 3.53-1.34 4.57a3.3 3.3 0 0 1-1.06 1.17c-.4.25-.86.37-1.41.37-.7 0-1.22-.04-1.56-.11l-.15-1.78c.33.04.88.06 1.65.06.28 0 .52-.05.72-.17.21-.13.4-.35.57-.66 1.12-1.73 1.68-5.3 1.68-10.7v-1.73l-2.53-.27v-1.1h12.71v1.1l-2.04.27V36.7l2.17.22V38h-6.77v-1.08l2.26-.24.03-13.66h-4.47V25Zm17.81 3.08c1.79 0 3.16.42 4.11 1.27a4.45 4.45 0 0 1 1.43 3.52c0 1.7-.54 3-1.61 3.92a6.25 6.25 0 0 1-4.24 1.39l-.75-.03-.77-.04a26.8 26.8 0 0 0-2.27-.11h-2.99v-1.08l1.85-.22V23l-1.78-.29v-1.06h6.27v1.06l-2.16.29v5.1l2.91-.02Zm-2.91 8.71a12.14 12.14 0 0 0 2.18.2c1.23 0 2.17-.35 2.82-1.04.66-.69.99-1.67.99-2.94 0-1.22-.33-2.13-.97-2.73-.65-.62-1.57-.93-2.77-.93l-2.25.03v7.41Zm17.61-7.35c.59.22 1.18.71 1.76 1.48a38.2 38.2 0 0 1 2.11 3.05c.56.91.99 1.58 1.3 2 .31.42.57.65.79.71l.84.24V38h-2.73c-.34 0-.72-.29-1.14-.86-.41-.58-.95-1.47-1.61-2.66a33.07 33.07 0 0 0-1.87-3.04c-.5-.69-.97-1.03-1.43-1.03h-1.41v6.27l1.96.26V38h-6.03v-1.1l1.79-.22V23.02l-1.79-.27v-1.1h5.9v1.1l-1.83.27v6.33h1.9l4.44-6.33-1.85-.27v-1.1h5.41v1.1l-1.73.27-4.78 6.42Zm14.61 8.8a6.73 6.73 0 0 1-3.8-1.03 6.4 6.4 0 0 1-2.34-2.9 11.42 11.42 0 0 1-.79-4.38c0-1.7.32-3.17.95-4.45a7.1 7.1 0 0 1 6.4-4c2.29 0 4.03.72 5.24 2.18 1.21 1.43 1.82 3.43 1.82 5.98 0 1.72-.33 3.23-.99 4.53a7.06 7.06 0 0 1-6.49 4.07Zm.29-15.62c-1.42 0-2.55.63-3.37 1.87-.82 1.23-1.23 3.05-1.23 5.44 0 2.2.4 3.94 1.19 5.23a3.77 3.77 0 0 0 3.36 1.92 3.8 3.8 0 0 0 3.35-1.92c.83-1.27 1.25-3.1 1.25-5.5 0-2.21-.39-3.94-1.19-5.17a3.76 3.76 0 0 0-3.36-1.87Zm21.69 6.82c.59.22 1.17.71 1.76 1.48a38.2 38.2 0 0 1 2.11 3.05c.56.91.99 1.58 1.3 2 .31.42.57.65.79.71l.84.24V38h-2.73c-.34 0-.72-.29-1.14-.86-.41-.58-.95-1.47-1.61-2.66a33.07 33.07 0 0 0-1.87-3.04c-.5-.69-.98-1.03-1.43-1.03h-1.41v6.27l1.96.26V38h-6.03v-1.1l1.78-.22V23.02l-1.78-.27v-1.1h5.9v1.1l-1.83.27v6.33h1.89l4.45-6.33-1.85-.27v-1.1h5.41v1.1l-1.74.27-4.77 6.42Zm15.36 5.17c-.06.12-.24.54-.53 1.26-.29.7-.71 1.27-1.25 1.71-.55.44-1.18.66-1.9.66a6 6 0 0 1-2.04-.35v-1.56l1.56.02c.67 0 1.17-.13 1.5-.4.32-.27.6-.77.83-1.47l-5.54-11.46-1.19-.27v-1.1h5.94v1.1l-2.16.27 3.55 7.65.66 2 .72-2.02 2.8-7.63-1.87-.27v-1.1h4.7v1.1l-1.14.27-4.64 11.6Zm11.94-9.61c0 2.64-.15 4.97-.46 7-.29 2-.74 3.53-1.34 4.57a3.3 3.3 0 0 1-1.06 1.17c-.39.25-.86.37-1.41.37-.7 0-1.22-.04-1.56-.11l-.15-1.78c.33.04.88.06 1.65.06.28 0 .52-.05.72-.17.21-.13.4-.35.58-.66 1.11-1.73 1.67-5.3 1.67-10.7v-1.73l-2.53-.27v-1.1h12.71v1.1l-2.04.27V36.7l2.18.22V38h-6.78v-1.08l2.27-.24.02-13.66h-4.47V25Zm17.81 3.08c1.79 0 3.16.42 4.11 1.27a4.45 4.45 0 0 1 1.43 3.52c0 1.7-.53 3-1.61 3.92a6.25 6.25 0 0 1-4.24 1.39l-.75-.03-.77-.04a26.8 26.8 0 0 0-2.27-.11h-2.99v-1.08l1.85-.22V23l-1.78-.29v-1.06h6.27v1.06l-2.16.29v5.1l2.91-.02Zm-2.91 8.71a12.14 12.14 0 0 0 2.18.2c1.23 0 2.17-.35 2.82-1.04.66-.69.99-1.67.99-2.94 0-1.22-.33-2.13-.97-2.73-.65-.62-1.57-.93-2.77-.93l-2.25.03v7.41Zm15.43-13.97-3.78.13-.77 4.6h-1.45l.37-5.9h13.71l.26 5.9h-1.38l-.73-4.6-3.81-.13V36.7l3.13.22V38h-8.41v-1.08l2.86-.22V22.82Zm17.28 11.8c-.06.1-.23.53-.53 1.25-.29.7-.71 1.27-1.25 1.71a2.9 2.9 0 0 1-1.89.66 6.19 6.19 0 0 1-2.05-.35v-1.56l1.56.02c.68 0 1.18-.13 1.5-.4.32-.27.6-.77.84-1.47l-5.55-11.46-1.19-.27v-1.1h5.94v1.1l-2.15.27 3.54 7.65.66 2 .73-2.02 2.79-7.63-1.87-.27v-1.1h4.71v1.1l-1.15.27-4.64 11.6Zm8.32-11.6-1.72-.27v-1.1h2.93c.52 0 1.04-.02 1.56-.06.79-.06 1.54-.09 2.24-.09 2.13.01 3.63.41 4.51 1.19.88.78 1.32 1.95 1.32 3.52a5.22 5.22 0 0 1-3.08 5.04c-.95.45-2.05.68-3.3.68-.42 0-.86 0-1.3-.02a15.2 15.2 0 0 1-.81-.07v4.84l3.01.24V38h-7.19v-1.08l1.83-.22V23.02Zm2.35 7.61c.41.07 1.11.11 2.11.11 1.16 0 2.1-.35 2.82-1.06.73-.7 1.1-1.85 1.1-3.45 0-1.26-.32-2.16-.95-2.7-.63-.56-1.61-.84-2.95-.84-.47 0-.96.03-1.49.09l-.64.04v7.81Zm17.48 3.98c-.06.12-.24.54-.53 1.26-.29.7-.71 1.27-1.25 1.71-.55.44-1.18.66-1.9.66a6 6 0 0 1-2.04-.35v-1.56l1.56.02c.67 0 1.17-.13 1.5-.4.32-.27.6-.77.83-1.47l-5.54-11.46-1.19-.27v-1.1h5.94v1.1l-2.16.27 3.55 7.65.66 2 .72-2.02 2.8-7.63-1.87-.27v-1.1h4.7v1.1l-1.14.27-4.64 11.6Zm9.21.09c.5 0 .91.24 1.23.73.33.47.49 1.11.49 1.93 0 .84-.13 1.64-.4 2.42a7.12 7.12 0 0 1-.99 1.98 3.9 3.9 0 0 1-1.16 1.17h-.03l-.74-.53v-.24c.29-.24.58-.75.88-1.54.3-.78.46-1.52.46-2.22a1 1 0 0 0-.13-.53c-.08-.15-.2-.32-.38-.5a3.5 3.5 0 0 1-.46-.62 1.7 1.7 0 0 1-.15-.77c0-.39.11-.7.35-.93.25-.23.56-.35.92-.35h.11Zm11.69-11.68-1.74-.27v-1.1h5.99v1.1l-1.9.27v5.92h7.75v-5.92l-1.78-.27v-1.1h5.89v1.1l-1.74.27V36.7l1.74.22V38h-5.92v-1.08l1.81-.22v-6.4h-7.75v6.4l1.92.22V38h-6.05v-1.08l1.78-.22V23.02Zm23.02 15.22c-1.5 0-2.77-.34-3.81-1.03a6.39 6.39 0 0 1-2.33-2.9 11.23 11.23 0 0 1-.79-4.38c0-1.7.31-3.17.94-4.45a7.24 7.24 0 0 1 2.64-2.95 6.91 6.91 0 0 1 3.76-1.05c2.29 0 4.04.72 5.24 2.18 1.22 1.43 1.83 3.43 1.83 5.98 0 1.72-.33 3.23-.99 4.53a7.05 7.05 0 0 1-6.49 4.07Zm.28-15.62c-1.42 0-2.54.63-3.36 1.87-.83 1.23-1.24 3.05-1.24 5.44 0 2.2.4 3.94 1.19 5.23a3.79 3.79 0 0 0 3.37 1.92c1.41 0 2.52-.64 3.34-1.92.84-1.27 1.26-3.1 1.26-5.5 0-2.21-.4-3.94-1.19-5.17a3.78 3.78 0 0 0-3.37-1.87Zm20.5-.97v1.1l-2.15.27v11.04l1.8-2.7 6.34-7.75v-.6l-1.96-.26v-1.1h6.05v1.1l-1.76.27V36.7l1.87.22V38h-6.14v-1.08l1.94-.22V25.5l-1.63 2.56-6.51 7.85v.8l2.07.21V38h-6.21v-1.08l1.83-.22V23.02l-1.76-.27v-1.1h6.22Zm17.69.66c.37-.01.84-.1 1.41-.28a17.7 17.7 0 0 1 1.76-.4c.54-.1 1.2-.15 1.98-.15 1.56 0 2.89.36 4.01 1.08a6.7 6.7 0 0 1 2.53 2.97c.58 1.27.88 2.75.88 4.42a9.5 9.5 0 0 1-.97 4.35 7.1 7.1 0 0 1-2.73 2.9 7.88 7.88 0 0 1-4.07 1.04 8.6 8.6 0 0 1-1.61-.13 22.1 22.1 0 0 1-1.56-.37 5.77 5.77 0 0 0-1.52-.31l-.39-3.26 1.52-.24.88 2.18c.32.25.7.46 1.14.64.45.17 1.07.26 1.85.26.92 0 1.74-.26 2.44-.77a5.2 5.2 0 0 0 1.69-2.29c.41-1.01.63-2.22.64-3.63l-7.19.2v-1.78l7.13.2a8.84 8.84 0 0 0-1.46-4.51 3.85 3.85 0 0 0-3.36-1.74c-.75 0-1.33.1-1.74.28-.41.18-.79.42-1.14.73l-.6 2.11h-1.56l.04-3.5Zm21.85 7.13c.59.22 1.18.71 1.76 1.48a38.2 38.2 0 0 1 2.11 3.05c.56.91.99 1.58 1.3 2 .31.42.57.65.79.71l.84.24V38h-2.73c-.33 0-.72-.29-1.14-.86-.41-.58-.95-1.47-1.61-2.66a33.07 33.07 0 0 0-1.87-3.04c-.5-.69-.97-1.03-1.43-1.03h-1.41v6.27l1.96.26V38h-6.03v-1.1l1.79-.22V23.02l-1.79-.27v-1.1h5.9v1.1l-1.83.27v6.33h1.9l4.44-6.33-1.85-.27v-1.1h5.41v1.1l-1.73.27-4.78 6.42Zm14.61 8.8a6.73 6.73 0 0 1-3.8-1.03 6.4 6.4 0 0 1-2.34-2.9 11.42 11.42 0 0 1-.79-4.38c0-1.7.32-3.17.95-4.45a7.1 7.1 0 0 1 6.4-4c2.29 0 4.03.72 5.24 2.18 1.21 1.43 1.82 3.43 1.82 5.98 0 1.72-.33 3.23-.99 4.53a7.06 7.06 0 0 1-6.49 4.07Zm.29-15.62c-1.42 0-2.55.63-3.37 1.87-.82 1.23-1.23 3.05-1.23 5.44 0 2.2.4 3.94 1.19 5.23a3.79 3.79 0 0 0 3.36 1.92 3.8 3.8 0 0 0 3.35-1.92c.83-1.27 1.25-3.1 1.25-5.5 0-2.21-.39-3.94-1.19-5.17a3.76 3.76 0 0 0-3.36-1.87Zm10.79.4-1.73-.27v-1.1h5.98v1.1l-1.89.27v5.92h7.74v-5.92l-1.78-.27v-1.1h5.9v1.1l-1.74.27V36.7l1.74.22V38h-5.92v-1.08l1.8-.22v-6.4h-7.74v6.4l1.91.22V38h-6.05v-1.08l1.78-.22V23.02Zm23.02 15.22c-1.5 0-2.77-.34-3.81-1.03a6.45 6.45 0 0 1-2.33-2.9 11.23 11.23 0 0 1-.79-4.38c0-1.7.31-3.17.94-4.45a7.24 7.24 0 0 1 2.64-2.95 6.92 6.92 0 0 1 3.77-1.05c2.28 0 4.03.72 5.23 2.18 1.22 1.43 1.83 3.43 1.83 5.98 0 1.72-.33 3.23-.99 4.53a7.36 7.36 0 0 1-2.69 3.02 7 7 0 0 1-3.8 1.05Zm.28-15.62c-1.42 0-2.54.63-3.36 1.87-.82 1.23-1.23 3.05-1.23 5.44 0 2.2.39 3.94 1.18 5.23a3.79 3.79 0 0 0 3.37 1.92c1.41 0 2.52-.64 3.34-1.92.84-1.27 1.26-3.1 1.26-5.5 0-2.21-.4-3.94-1.19-5.17a3.76 3.76 0 0 0-3.37-1.87Zm11.53.4-2.4-.27v-1.1h5.83l3.1 9.9.73 2.8.66-2.8 3.08-9.9h5.78v1.1l-2.42.27 1.76 13.66 1.92.24V38h-6.34v-1.08l2-.22-.99-9.88-.46-4.24-.92 3.17-3.68 11.5h-1.43l-3.56-10.54-1.3-4.15-.4 4.26-.88 9.88 2.18.22V38h-5.74v-1.08l1.87-.22 1.61-13.68Zm25.54-1.37v1.1l-2.15.27v11.04l1.8-2.7 6.34-7.75v-.6l-1.96-.26v-1.1h6.05v1.1l-1.76.27V36.7l1.87.22V38h-6.14v-1.08l1.94-.22V25.5l-1.63 2.56-6.51 7.85v.8l2.06.21V38h-6.2v-1.08l1.83-.22V23.02l-1.76-.27v-1.1h6.22Zm19.75 7.8c.59.21 1.18.7 1.76 1.47a38.2 38.2 0 0 1 2.11 3.05c.56.91 1 1.58 1.3 2 .31.42.58.65.8.71l.83.24V38h-2.73c-.33 0-.72-.29-1.14-.86-.41-.58-.95-1.47-1.61-2.66a30.99 30.99 0 0 0-1.87-3.04c-.5-.69-.97-1.03-1.43-1.03h-1.4v6.27l1.95.26V38h-6.02v-1.1l1.78-.22V23.02l-1.78-.27v-1.1h5.89v1.1l-1.82.27v6.33h1.89l4.44-6.33-1.85-.27v-1.1h5.42v1.1l-1.74.27-4.78 6.42Zm15.36 5.16-.53 1.26c-.29.7-.71 1.27-1.25 1.71a2.9 2.9 0 0 1-1.89.66 6.11 6.11 0 0 1-2.05-.35v-1.56l1.56.02c.68 0 1.18-.13 1.5-.4.32-.27.6-.77.84-1.47l-5.55-11.46-1.19-.27v-1.1h5.94v1.1l-2.15.27 3.54 7.65.66 2 .73-2.02 2.79-7.63-1.87-.27v-1.1h4.71v1.1l-1.15.27-4.64 11.6Zm9.94-1.85h-1.41l-.66-14.19h2.69l-.62 14.2Zm-2.15 4.07c0-.44.17-.81.5-1.12.34-.3.72-.46 1.15-.46.47 0 .83.13 1.07.4.25.26.38.59.38.99 0 .47-.17.85-.51 1.14-.32.3-.72.44-1.19.44-.38 0-.71-.12-.99-.37-.27-.27-.41-.6-.41-1.02ZM1685.72 25c0 2.64-.16 4.97-.47 7-.29 2-.74 3.53-1.34 4.57-.31.53-.66.92-1.05 1.17-.4.25-.87.37-1.41.37a8.2 8.2 0 0 1-1.56-.11l-.16-1.78c.34.04.89.06 1.65.06.28 0 .52-.05.73-.17.2-.13.39-.35.57-.66 1.11-1.73 1.67-5.3 1.67-10.7v-1.73l-2.53-.27v-1.1h12.72v1.1l-2.05.27V36.7l2.18.22V38h-6.78v-1.08l2.27-.24.02-13.66h-4.46V25Zm12.52-1.98-1.8-.27v-1.1h11.19l.31 3.41h-1.25l-.64-2.13-5.46-.13V29l3.68-.06.31-1.83h1.21v5.06h-1.21l-.31-1.9-3.68-.06v6.56l6.21-.22 1.16-2.77 1.3.4-.64 3.82h-12.21v-1.08l1.83-.22V23.02Zm26.63 13.66c0 .2-.08 1.13-.24 2.82a57.4 57.4 0 0 1-.27 2.6h-1.41a45.5 45.5 0 0 0-.19-2.38 14.08 14.08 0 0 0-.2-1.72h-10.06c-.05.06-.2.62-.44 1.67l-.5 2.44h-1.43a113.11 113.11 0 0 1 .24-5.43h1.61c.35-.44.73-1.16 1.14-2.16.43-1 .81-2.37 1.14-4.09.34-1.73.51-3.75.51-6.07v-1.34l-2.27-.27v-1.1h12.46v1.1l-2.07.27v13.66h1.98Zm-8.74-12.19c.02 2.08-.11 3.98-.37 5.68a25.62 25.62 0 0 1-.95 4.18 10.8 10.8 0 0 1-.96 2.33h6.71l.02-13.75h-4.45v1.56Zm21.36-1.67-3.78.13-.77 4.6h-1.46l.38-5.9h13.7l.27 5.9h-1.39l-.72-4.6-3.81-.13V36.7l3.12.22V38h-8.4v-1.08l2.86-.22V22.82Zm11.73.2-1.71-.27v-1.1h2.92c.53 0 1.05-.02 1.57-.06.79-.06 1.54-.09 2.24-.09 2.13.01 3.63.41 4.51 1.19.88.78 1.32 1.95 1.32 3.52a5.27 5.27 0 0 1-3.08 5.04c-.95.45-2.05.68-3.3.68-.43 0-.86 0-1.3-.02a15.2 15.2 0 0 1-.81-.07v4.84l3.01.24V38h-7.19v-1.08l1.82-.22V23.02Zm2.36 7.61c.41.07 1.11.11 2.11.11 1.16 0 2.1-.35 2.82-1.06.73-.7 1.1-1.85 1.1-3.45 0-1.26-.32-2.16-.95-2.7-.63-.56-1.61-.84-2.95-.84-.47 0-.97.03-1.49.09l-.64.04v7.81Zm16.73 7.61c-1.5 0-2.77-.34-3.81-1.03a6.39 6.39 0 0 1-2.33-2.9 11.23 11.23 0 0 1-.79-4.38c0-1.7.31-3.17.94-4.45a7.24 7.24 0 0 1 2.64-2.95 6.91 6.91 0 0 1 3.76-1.05c2.29 0 4.04.72 5.24 2.18 1.22 1.43 1.83 3.43 1.83 5.98 0 1.72-.33 3.23-.99 4.53a7.05 7.05 0 0 1-6.49 4.07Zm.28-15.62c-1.42 0-2.54.63-3.36 1.87-.82 1.23-1.24 3.05-1.24 5.44 0 2.2.4 3.94 1.19 5.23a3.79 3.79 0 0 0 3.37 1.92c1.41 0 2.52-.64 3.34-1.92.84-1.27 1.26-3.1 1.26-5.5 0-2.21-.4-3.94-1.19-5.17a3.78 3.78 0 0 0-3.37-1.87Zm10.8.4-1.74-.27v-1.1h5.98v1.1l-1.89.27v5.92h7.75v-5.92l-1.79-.27v-1.1h5.9v1.1l-1.74.27V36.7l1.74.22V38h-5.92v-1.08l1.81-.22v-6.4h-7.75v6.4l1.92.22V38h-6.05v-1.08l1.78-.22V23.02Zm23.76 11.6c-.06.1-.23.53-.53 1.25-.29.7-.71 1.27-1.25 1.71a2.9 2.9 0 0 1-1.89.66 6.11 6.11 0 0 1-2.05-.35v-1.56l1.56.02c.68 0 1.18-.13 1.5-.4.32-.27.6-.77.83-1.47l-5.54-11.46-1.19-.27v-1.1h5.94v1.1l-2.15.27 3.54 7.65.66 2 .72-2.02 2.8-7.63-1.87-.27v-1.1h4.71v1.1l-1.15.27-4.64 11.6Zm11.94-9.62c0 2.64-.15 4.97-.46 7-.29 2-.74 3.53-1.34 4.57a3.3 3.3 0 0 1-1.06 1.17c-.39.25-.86.37-1.4.37-.71 0-1.23-.04-1.57-.11l-.15-1.78c.34.04.89.06 1.65.06.28 0 .52-.05.73-.17.2-.13.39-.35.57-.66 1.11-1.73 1.67-5.3 1.67-10.7v-1.73l-2.53-.27v-1.1h12.72v1.1l-2.05.27V36.7l2.18.22V38h-6.78v-1.08l2.27-.24.02-13.66h-4.47V25Zm18.01 13.24a7.88 7.88 0 0 1-4.14-1.03 6.68 6.68 0 0 1-2.57-2.95 10.4 10.4 0 0 1-.88-4.44c0-1.65.34-3.1 1.03-4.36a7.4 7.4 0 0 1 2.84-2.93 7.85 7.85 0 0 1 4.05-1.05c1.13 0 2.48.17 4.07.53l.72.13-.22 3.96h-1.47l-.55-2.8a2.67 2.67 0 0 0-1.08-.44c-.5-.13-1.11-.2-1.85-.2a4.1 4.1 0 0 0-2.5.82 5.17 5.17 0 0 0-1.74 2.35 10.2 10.2 0 0 0-.62 3.74c0 1.38.18 2.64.55 3.77a6.18 6.18 0 0 0 1.67 2.7c.75.66 1.68 1 2.78 1 .77 0 1.37-.07 1.78-.2.42-.14.78-.33 1.08-.58l.92-2.15 1.39.17-.53 3.13c-.31.01-.77.11-1.37.3a11.52 11.52 0 0 1-3.36.53Zm14.22-7.39h-1.08c-.35.25-.71.71-1.08 1.39-.35.67-.76 1.55-1.21 2.64a29.1 29.1 0 0 1-1.12 2.35c-.28.51-.54.77-.77.77h-2.99v-1.08l.85-.24c.22-.04.45-.25.69-.62.25-.38.6-1 1.07-1.84.49-.97.94-1.76 1.35-2.38a3.8 3.8 0 0 1 1.25-1.28c-1-.27-1.78-.8-2.35-1.58a4.79 4.79 0 0 1-.84-2.84c0-1.76.52-2.98 1.56-3.65 1.06-.67 2.56-1.01 4.51-1.01.43 0 .98.03 1.65.09.71.05 1.24.08 1.61.08h3.19v1.1l-1.85.27V36.7l2.02.22V38h-6.49v-1.08l2.12-.22v-5.85h-2.09Zm1.51-8.07c-.66-.08-1.24-.11-1.76-.11a4.2 4.2 0 0 0-2.64.72c-.6.49-.9 1.35-.9 2.6 0 1.19.3 2.1.9 2.73.62.63 1.5.94 2.64.94 1.18 0 1.95-.02 2.34-.06v-6.76l-.58-.06Zm9.6 11.92c.5 0 .91.24 1.23.73.32.47.48 1.11.48 1.93a7.58 7.58 0 0 1-1.38 4.4c-.4.56-.79.95-1.17 1.17h-.02l-.75-.53v-.24c.3-.24.59-.75.88-1.54a6 6 0 0 0 .46-2.22c0-.22-.04-.4-.13-.53-.07-.15-.2-.32-.37-.5a2.78 2.78 0 0 1-.46-.62c-.11-.2-.16-.45-.16-.77 0-.39.12-.7.35-.93.25-.23.56-.35.93-.35h.11Zm21.01-13.05.16 5.79h-1.48l-.63-4.47-4.84-.17v13.88l3.82.24V38h-8.62v-1.08l2.42-.24V23.04l-2.35-.3v-1.09h11.52Zm8.15 16.6c-1.5 0-2.77-.35-3.81-1.04a6.45 6.45 0 0 1-2.33-2.9 11.23 11.23 0 0 1-.79-4.38c0-1.7.31-3.17.94-4.45a7.24 7.24 0 0 1 2.64-2.95 6.92 6.92 0 0 1 3.77-1.05c2.28 0 4.03.72 5.23 2.18 1.22 1.43 1.83 3.43 1.83 5.98 0 1.72-.33 3.23-.99 4.53a7.02 7.02 0 0 1-6.49 4.07Zm.28-15.63c-1.42 0-2.54.63-3.36 1.87-.82 1.23-1.23 3.05-1.23 5.44 0 2.2.39 3.94 1.18 5.23a3.79 3.79 0 0 0 3.37 1.92c1.41 0 2.52-.64 3.34-1.92.84-1.27 1.26-3.1 1.26-5.5 0-2.21-.4-3.94-1.19-5.17a3.76 3.76 0 0 0-3.37-1.87Zm16.23 15.62a7.85 7.85 0 0 1-4.13-1.03 6.76 6.76 0 0 1-2.58-2.95 10.55 10.55 0 0 1-.88-4.44c0-1.65.35-3.1 1.04-4.36a7.33 7.33 0 0 1 2.84-2.93 7.84 7.84 0 0 1 4.04-1.05c1.13 0 2.49.17 4.07.53l.73.13-.22 3.96h-1.47l-.55-2.8a2.67 2.67 0 0 0-1.08-.44c-.5-.13-1.12-.2-1.85-.2a4.1 4.1 0 0 0-2.51.82 5.31 5.31 0 0 0-1.74 2.35 10.21 10.21 0 0 0-.61 3.74c0 1.38.18 2.64.55 3.77a6 6 0 0 0 1.67 2.7c.75.66 1.67 1 2.77 1 .78 0 1.37-.07 1.78-.2a3.1 3.1 0 0 0 1.08-.58l.93-2.15 1.38.17-.53 3.13c-.3.01-.76.11-1.36.3-.53.17-1.04.29-1.54.38-.48.1-1.09.15-1.83.15Zm22.54-16.59v1.1l-1.87.29v13.64l2.04.24V38h-6.2v-1.08l1.83-.24V22.95h-7.04V36.7l2.04.22V38h-6.16v-1.08l1.78-.22V23.02l-1.87-.27v-1.1h15.45Zm8.71 16.6c-1.5 0-2.77-.35-3.81-1.04a6.45 6.45 0 0 1-2.33-2.9 11.23 11.23 0 0 1-.79-4.38c0-1.7.31-3.17.94-4.45a7.24 7.24 0 0 1 2.64-2.95 6.92 6.92 0 0 1 3.77-1.05c2.28 0 4.03.72 5.23 2.18 1.22 1.43 1.83 3.43 1.83 5.98 0 1.72-.33 3.23-.99 4.53a7.02 7.02 0 0 1-6.49 4.07Zm.28-15.63c-1.42 0-2.54.63-3.36 1.87-.82 1.23-1.23 3.05-1.23 5.44 0 2.2.39 3.94 1.18 5.23a3.79 3.79 0 0 0 3.37 1.92c1.41 0 2.52-.64 3.34-1.92.84-1.27 1.26-3.1 1.26-5.5 0-2.21-.4-3.94-1.19-5.17a3.76 3.76 0 0 0-3.37-1.87Zm23.05 14.06c0 .2-.08 1.13-.24 2.82l-.26 2.6h-1.41a66.16 66.16 0 0 0-.4-4.1h-10.05a9.2 9.2 0 0 0-.44 1.67l-.51 2.44h-1.43l.09-2.64.15-2.79h1.61c.35-.44.73-1.16 1.14-2.16a21.5 21.5 0 0 0 1.15-4.09c.34-1.73.5-3.75.5-6.07v-1.34l-2.26-.27v-1.1h12.45v1.1l-2.07.27v13.66h1.98Zm-8.73-12.19c.01 2.08-.11 3.98-.38 5.68a25.73 25.73 0 0 1-.94 4.18c-.35 1.1-.68 1.88-.97 2.33h6.71l.02-13.75h-4.44v1.56Zm16.13-2.97h2.42l5.35 15.18 1.36.22V38h-5.8v-1.08l1.82-.22-1.03-3.25h-6.43l-1.03 3.25 1.89.22V38h-5.21v-1.08l1.36-.22 5.3-15.18Zm1.39 3.52-.55-1.93-.53 1.98-2.22 7.06h5.61l-2.31-7.1Zm29.16-3.39v1.1l-1.87.29v13.64l2.05.24V38h-6.2v-1.08l1.82-.24V22.95h-7.04V36.7l2.05.22V38h-6.16v-1.08l1.78-.22V23.02l-1.87-.27v-1.1h15.44Zm3.92 1.37-1.72-.27v-1.1h2.93c.53 0 1.05-.02 1.56-.06.79-.06 1.54-.09 2.24-.09 2.13.01 3.63.41 4.51 1.19.88.78 1.32 1.95 1.32 3.52a5.22 5.22 0 0 1-3.08 5.04c-.95.45-2.05.68-3.3.68-.42 0-.85 0-1.29-.02l-.82-.07v4.84l3.02.24V38h-7.2v-1.08l1.83-.22V23.02Zm2.35 7.61c.41.07 1.12.11 2.11.11 1.16 0 2.1-.35 2.82-1.06.73-.7 1.1-1.85 1.1-3.45 0-1.26-.32-2.16-.95-2.7-.63-.56-1.61-.84-2.94-.84-.47 0-.97.03-1.5.09l-.64.04v7.81Zm16.42-8.98v1.1l-2.15.27v11.04l1.8-2.7 6.34-7.75v-.6l-1.96-.26v-1.1h6.05v1.1l-1.76.27V36.7l1.87.22V38h-6.14v-1.08l1.94-.22V25.5l-1.63 2.56-6.51 7.85v.8l2.07.21V38h-6.21v-1.08l1.83-.22V23.02l-1.76-.27v-1.1h6.22Zm19.51 16.6a7.85 7.85 0 0 1-4.13-1.04 6.76 6.76 0 0 1-2.58-2.95 10.4 10.4 0 0 1-.88-4.44c0-1.65.35-3.1 1.04-4.36a7.3 7.3 0 0 1 2.83-2.93 7.9 7.9 0 0 1 4.05-1.05c1.13 0 2.49.17 4.07.53l.73.13-.22 3.96h-1.48l-.55-2.8c-.2-.17-.56-.32-1.07-.44-.5-.13-1.12-.2-1.85-.2a4.1 4.1 0 0 0-2.51.82 5.31 5.31 0 0 0-1.74 2.35 10.21 10.21 0 0 0-.61 3.74c0 1.38.18 2.64.55 3.77a6 6 0 0 0 1.67 2.7c.75.66 1.67 1 2.77 1 .78 0 1.37-.07 1.78-.2a3.1 3.1 0 0 0 1.08-.58l.92-2.15 1.39.17-.53 3.13c-.31.01-.76.11-1.36.3-.53.17-1.04.29-1.54.38-.49.1-1.1.15-1.83.15Zm14.22-7.4h-1.08c-.35.25-.71.71-1.08 1.39a39.1 39.1 0 0 0-1.21 2.64 26.03 26.03 0 0 1-1.12 2.35c-.28.51-.53.77-.77.77h-2.99v-1.08l.86-.24c.22-.04.45-.25.68-.62.25-.38.61-1 1.08-1.84.48-.97.93-1.76 1.34-2.38.41-.62.83-1.04 1.25-1.28a4.25 4.25 0 0 1-2.35-1.58 4.79 4.79 0 0 1-.84-2.84c0-1.76.53-2.98 1.57-3.65 1.05-.67 2.56-1.01 4.51-1.01.42 0 .97.03 1.65.09.7.05 1.24.08 1.6.08h3.19v1.1l-1.85.27V36.7l2.03.22V38h-6.49v-1.08l2.11-.22v-5.85h-2.09Zm1.52-8.07c-.66-.08-1.25-.11-1.76-.11a4.2 4.2 0 0 0-2.64.72c-.6.49-.9 1.35-.9 2.6 0 1.19.3 2.1.9 2.73.61.63 1.49.94 2.64.94 1.17 0 1.95-.02 2.33-.06v-6.76l-.57-.06Zm21.8 6.68c.59.22 1.18.72 1.76 1.48a36.8 36.8 0 0 1 2.07 3.06c.56.88.99 1.53 1.3 1.95.32.43.59.67.81.73l.86.24V38h-2.75c-.34 0-.71-.29-1.12-.86-.4-.57-.94-1.46-1.63-2.66a34.71 34.71 0 0 0-1.89-3.04c-.5-.69-.98-1.03-1.43-1.03h-1.39v6.27l1.94.26V38h-6.03v-1.08l1.85-.22v-6.29h-1.39c-.45 0-.94.35-1.45 1.06-.51.69-1.14 1.69-1.87 3.01a33.77 33.77 0 0 1-1.65 2.66c-.41.57-.78.86-1.12.86h-2.71v-1.08l.82-.24c.22-.06.48-.3.79-.73.32-.42.76-1.07 1.32-1.95a35.3 35.3 0 0 1 2.07-3.08 4.35 4.35 0 0 1 1.78-1.48l-4.73-6.42-1.74-.27v-1.1h5.32v1.1l-1.71.27 4.35 6.33h1.92v-6.33l-1.83-.27v-1.1h5.96v1.1l-1.89.27v6.33h1.92l4.33-6.31-1.72-.29v-1.1h5.37v1.1l-1.76.27-4.73 6.44Zm9.81-6.44-1.73-.27v-1.1h5.98v1.1l-1.89.27v5.92h7.74v-5.92l-1.78-.27v-1.1h5.9v1.1l-1.74.27V36.7l1.74.22V38h-5.92v-1.08l1.8-.22v-6.4h-7.74v6.4l1.91.22V38h-6.05v-1.08l1.78-.22V23.02Zm23.46 5.06c1.79 0 3.16.42 4.11 1.27a4.42 4.42 0 0 1 1.43 3.52c0 1.7-.53 3-1.6 3.92a6.28 6.28 0 0 1-4.25 1.39 13.86 13.86 0 0 1-1.52-.07c-.85-.07-1.6-.11-2.26-.11h-2.99v-1.08l1.84-.22V23l-1.78-.29v-1.06h6.27v1.06l-2.15.29v5.1l2.9-.02Zm13.82-6.43v1.1l-2.05.27V36.7l2.05.24V38h-6.47v-1.08l2.04-.22V23.02l-2.04-.27v-1.1h6.47Zm-16.72 15.14a12.31 12.31 0 0 0 2.17.2c1.24 0 2.17-.35 2.82-1.04.66-.69.99-1.67.99-2.94 0-1.22-.32-2.13-.97-2.73-.64-.62-1.57-.93-2.77-.93l-2.24.03v7.41Zm20.74-13.77-1.81-.27v-1.1h11.2l.31 3.41h-1.26l-.63-2.13-5.46-.13V29l3.67-.06.31-1.83h1.21v5.06h-1.21l-.31-1.9-3.67-.06v6.56l6.2-.22 1.17-2.77 1.3.4-.64 3.82h-12.21v-1.08l1.83-.22V23.02Zm18.34-.84c.23-.01.7-.1 1.41-.26a23.3 23.3 0 0 1 1.69-.33 8.8 8.8 0 0 1 1.36-.11c1.84 0 3.24.3 4.23.92a3.08 3.08 0 0 1 1.47 2.8c0 1.17-.37 2.1-1.12 2.81a5.2 5.2 0 0 1-2.66 1.37c1.36.03 2.41.4 3.14 1.12.75.7 1.13 1.6 1.13 2.7 0 1.59-.5 2.8-1.48 3.66-.97.85-2.51 1.27-4.64 1.27a11 11 0 0 1-2.33-.22c-.68-.14-1.21-.28-1.61-.4l-.7-.24.39-3.8h1.1l.62 2.86c.7.38 1.69.57 2.95.57.98 0 1.72-.3 2.22-.88.51-.59.77-1.47.77-2.64 0-.9-.27-1.67-.81-2.29-.55-.61-1.48-.92-2.8-.92h-1.54v-1.23h1.28c.61 0 1.19-.13 1.74-.38s1-.63 1.34-1.14c.33-.53.5-1.17.5-1.92 0-.98-.28-1.7-.83-2.15a3.45 3.45 0 0 0-2.27-.68 5 5 0 0 0-1.65.24c-.44.16-.73.36-.88.61l-.42 2.05h-1.38l-.22-3.39Zm18.13-.66h2.42l5.35 15.18 1.36.22V38h-5.8v-1.08l1.82-.22-1.03-3.25h-6.43l-1.03 3.25 1.89.22V38h-5.21v-1.08l1.36-.22 5.3-15.18Zm1.39 3.52-.55-1.93-.53 1.98-2.22 7.06h5.61l-2.31-7.1Zm15.78 13.2a7.85 7.85 0 0 1-4.13-1.03 6.76 6.76 0 0 1-2.58-2.95 10.55 10.55 0 0 1-.88-4.44c0-1.65.35-3.1 1.04-4.36a7.37 7.37 0 0 1 2.83-2.93 7.9 7.9 0 0 1 4.05-1.05c1.13 0 2.49.17 4.07.53l.73.13-.22 3.96h-1.48l-.55-2.8c-.2-.17-.56-.32-1.07-.44-.5-.13-1.12-.2-1.85-.2a4.1 4.1 0 0 0-2.51.82 5.31 5.31 0 0 0-1.74 2.35 10.21 10.21 0 0 0-.61 3.74c0 1.38.18 2.64.55 3.77a6 6 0 0 0 1.67 2.7c.75.66 1.67 1 2.77 1 .78 0 1.37-.07 1.78-.2a3.1 3.1 0 0 0 1.08-.58l.92-2.15 1.39.17-.53 3.13c-.31.01-.76.11-1.36.3-.53.17-1.04.29-1.54.38-.49.1-1.09.15-1.83.15Zm8.9-15.22-1.81-.27v-1.1h11.2l.31 3.41h-1.25l-.64-2.13-5.46-.13V29l3.68-.06.3-1.83h1.21v5.06h-1.21l-.3-1.9-3.68-.06v6.56l6.21-.22 1.16-2.77 1.3.4-.64 3.82h-12.21v-1.08l1.83-.22V23.02Zm26.63 13.66c0 .2-.08 1.13-.25 2.82l-.26 2.6h-1.41c-.03-.55-.09-1.34-.2-2.38a13.06 13.06 0 0 0-.19-1.72h-10.06c-.06.06-.2.62-.44 1.67l-.5 2.44h-1.43l.08-2.64.16-2.79h1.6c.36-.44.74-1.16 1.15-2.16.42-1 .8-2.37 1.14-4.09.34-1.73.51-3.75.51-6.07v-1.34l-2.27-.27v-1.1h12.45v1.1l-2.06.27v13.66h1.98Zm-8.74-12.19c.02 2.08-.11 3.98-.37 5.68a26.71 26.71 0 0 1-.95 4.18c-.35 1.1-.67 1.88-.97 2.33h6.71l.03-13.75h-4.45v1.56Zm16.14-2.97h2.42l5.34 15.18 1.37.22V38h-5.81v-1.08l1.82-.22-1.03-3.25h-6.42l-1.04 3.25 1.89.22V38h-5.21v-1.08l1.36-.22 5.31-15.18Zm1.38 3.52-.55-1.93-.53 1.98-2.22 7.06h5.61l-2.31-7.1Zm13.85-2.22-3.79.13-.77 4.6h-1.45l.38-5.9h13.7l.27 5.9h-1.39l-.73-4.6-3.8-.13V36.7l3.12.22V38h-8.4v-1.08l2.86-.22V22.82Zm11.69.2-1.81-.27v-1.1h11.2l.31 3.41h-1.25l-.64-2.13-5.46-.13V29l3.68-.06.3-1.83h1.21v5.06h-1.21l-.3-1.9-3.68-.06v6.56l6.21-.22 1.16-2.77 1.3.4-.64 3.82h-12.21v-1.08l1.83-.22V23.02Zm18 1.98c0 2.64-.15 4.97-.46 7-.29 2-.74 3.53-1.34 4.57a3.3 3.3 0 0 1-1.06 1.17c-.39.25-.86.37-1.41.37-.7 0-1.22-.04-1.56-.11l-.15-1.78c.34.04.89.06 1.65.06.28 0 .52-.05.72-.17.21-.13.4-.35.58-.66 1.11-1.73 1.67-5.3 1.67-10.7v-1.73l-2.53-.27v-1.1h12.71v1.1l-2.04.27V36.7l2.18.22V38h-6.78v-1.08l2.27-.24.02-13.66h-4.47V25Zm17.06-3.35v1.1l-2.16.27v11.04l1.81-2.7 6.33-7.75v-.6l-1.95-.26v-1.1h6.05v1.1l-1.76.27V36.7l1.87.22V38h-6.14v-1.08l1.93-.22V25.5l-1.62 2.56-6.52 7.85v.8l2.07.21V38h-6.2v-1.08l1.82-.22V23.02l-1.76-.27v-1.1h6.23Zm15.7 11.11h-1.41l-.66-14.19h2.69l-.62 14.2Zm-2.15 4.07c0-.44.17-.81.5-1.12.34-.3.72-.46 1.15-.46.47 0 .83.13 1.07.4.25.26.38.59.38.99 0 .47-.17.85-.51 1.14-.32.3-.72.44-1.19.44-.38 0-.71-.12-.99-.37-.27-.27-.41-.6-.41-1.02Z"/>
  <circle cx="793" cy="30" r="3"/>
  <circle cx="1664" cy="30" r="3"/>
  <circle cx="2320" cy="30" r="3"/>
</svg>
